<svg width="114" height="115" viewBox="0 0 114 115" fill="none" xmlns="http://www.w3.org/2000/svg">
<path d="M53.428 14.406C50.1727 14.8493 46.9553 16.116 44.118 18.0413C42.5093 19.1433 40.1787 21.3853 39.026 22.956C36.8853 25.8693 35.3907 29.5553 34.96 32.988C34.77 34.508 34.808 37.51 35.0233 38.9793C35.948 45.1353 39.3933 50.468 44.65 53.9133C49.362 56.9913 55.2393 58.0807 60.6987 56.9027C68.1467 55.294 74.1 50.012 76.6207 42.792C76.836 42.1713 77.178 40.9427 77.3553 40.0687C77.6593 38.6373 77.6973 38.194 77.6973 35.876C77.71 33.6593 77.6593 33.064 77.4187 31.848C76.5447 27.5413 74.746 24.096 71.6173 20.7267C70.452 19.4853 66.956 16.876 66.7407 17.0913C66.576 17.2813 61.8767 22.7913 59.1533 26.0087C57.6587 27.7693 55.594 30.2013 54.568 31.4047C53.5293 32.6207 52.6933 33.6213 52.6933 33.6467C52.6933 33.7227 59.9007 39.9293 59.9767 39.9293C60.0273 39.9293 64.41 34.8627 64.9927 34.128C65.132 33.9507 65.2713 33.8493 65.322 33.9C65.3727 33.9507 65.436 34.508 65.4613 35.154C65.588 37.9027 64.6507 40.3473 62.7633 42.2727C61.028 44.0333 58.7227 44.996 56.24 44.996C50.0207 44.996 45.524 38.8273 47.4747 33.0133C47.9307 31.6707 48.2853 31.012 49.1087 29.986C50.6667 28.0607 53.4027 26.642 55.5813 26.6293H56.24V20.4227V14.216L55.4547 14.2287C55.0113 14.2413 54.0993 14.3173 53.428 14.406Z" fill="#DF2935"/>
<path d="M17.8727 58.1313C18.5693 59.2967 20.3173 61.868 21.0393 62.7927C25.6247 68.6447 30.9067 72.8627 37.7087 76.118C38.6333 76.5487 39.4187 76.916 39.4567 76.916C39.4947 76.916 39.52 76.156 39.52 75.2187V73.5213L37.8607 72.6727C36.024 71.748 34.2507 70.6713 32.4647 69.43C28.8547 66.8967 24.8393 62.8053 22.3187 59.0813L21.356 57.6627H19.4687H17.5813L17.8727 58.1313Z" fill="#DF2935"/>
<path d="M25.3967 58.1311C29.412 63.5398 34.8207 67.9224 40.7107 70.5318L41.9647 71.0891H46.1193H50.2867V70.6711V70.2404L49.3747 70.0758C45.9167 69.4678 41.1287 67.5424 37.734 65.3891C35.378 63.8944 32.3 61.4371 31.2993 60.2464C31.122 60.0438 30.5267 59.3851 29.9693 58.7644L28.956 57.6624H27.0053H25.0547L25.3967 58.1311Z" fill="#DF2935"/>
<path d="M33.706 58.1186C34.352 58.8026 36.784 60.8292 37.9367 61.6526C39.2793 62.6026 41.6607 64.0086 42.9653 64.6166C44.954 65.5413 47.842 66.5039 49.9447 66.9599L50.2993 67.0486L50.2613 65.3766L50.2233 63.7046L49.0707 63.4133C45.6507 62.5266 42.0027 60.7533 39.064 58.5366L37.9113 57.6626H35.5807H33.2627L33.706 58.1186Z" fill="#DF2935"/>
<path d="M84.2333 59.6258C84.2333 60.7024 84.2713 61.5891 84.3347 61.5891C84.436 61.5764 86.564 58.9164 87.0833 58.1311L87.4127 57.6624H85.8167H84.2333V59.6258Z" fill="#DF2935"/>
<path d="M90.44 58.8278C89.1987 60.6138 87.2607 62.9825 85.6647 64.6292L84.2207 66.1238L84.2587 68.1885L84.2967 70.2532L85.8167 68.9105C89.224 65.9085 92.264 62.2225 94.734 58.1312L95.0253 57.6625H93.138H91.2507L90.44 58.8278Z" fill="#DF2935"/>
<path d="M14.06 63.2611C14.06 69.0624 14.098 69.4298 14.6553 70.1898C15.314 71.0511 15.5293 71.0891 20.216 71.0891H24.4087L22.5593 69.2144C19.608 66.2504 16.8847 62.6658 14.9467 59.1951C14.5033 58.4224 14.136 57.7891 14.1107 57.7891C14.0853 57.7891 14.06 60.2591 14.06 63.2611Z" fill="black"/>
<path d="M97.7993 58.9293C94.7973 64.2493 90.1993 69.5567 85.196 73.496L84.3347 74.18L84.4107 75.0033C84.4487 75.4593 84.512 76.4347 84.55 77.1693C84.6007 77.904 84.6513 78.6387 84.6893 78.7907C84.7907 79.3227 84.5373 78.9807 83.5367 77.296C82.992 76.384 82.5233 75.624 82.4727 75.5987C82.4347 75.5733 81.6873 75.9787 80.8133 76.498C79.078 77.524 75.7593 79.196 74.1633 79.842C73.606 80.0573 73.0993 80.2853 73.036 80.336C72.9347 80.4373 79.648 91.8373 81.168 94.1427C82.726 96.524 84.664 97.9553 87.1213 98.5253C88.2107 98.7787 90.3893 98.7787 91.352 98.5253C94.8987 97.5753 97.2927 95.156 98.306 91.4827C98.4327 91.052 98.4833 87.518 98.5087 76.536C98.534 68.632 98.534 61.1587 98.5213 59.9427L98.4833 57.726L97.7993 58.9293Z" fill="black"/>
<path d="M72.1367 59.5247C68.4507 62.0327 63.1307 63.882 58.3047 64.3253L57.38 64.414V65.9593V67.5173L58.2413 67.454C63.194 67.112 68.4633 65.4653 72.732 62.932C74.6067 61.83 74.5053 62.096 73.6313 60.576C73.2133 59.854 72.8207 59.246 72.7573 59.2207C72.694 59.1953 72.4153 59.3347 72.1367 59.5247Z" fill="#DF2935"/>
<path d="M74.8093 65.4146C71.288 67.644 67.1207 69.316 63.08 70.1266C61.6867 70.4053 60.8 70.5193 58.0513 70.7853L57.38 70.8486V72.3686V73.876H57.798C58.5073 73.876 60.9393 73.6353 62.3073 73.42C66.12 72.8373 70.8193 71.2793 74.214 69.468C75.5187 68.7713 77.482 67.5806 77.5833 67.416C77.672 67.2766 76.114 64.756 75.9367 64.7686C75.8733 64.7686 75.354 65.06 74.8093 65.4146Z" fill="#DF2935"/>
<path d="M77.7733 70.9119C73.986 73.2299 69.958 74.8766 65.4867 75.9532C63.536 76.4092 59.9893 76.9159 58.6467 76.9159C57.3293 76.9159 57.38 76.8399 57.38 78.6386V80.2092L58.4947 80.1332C65.056 79.7152 70.8193 78.1826 76.4307 75.3706C77.71 74.7246 80.37 73.1792 80.7247 72.8626C80.8133 72.7866 79.4073 70.2786 79.192 70.1519C79.1413 70.1266 78.508 70.4686 77.7733 70.9119Z" fill="#DF2935"/>
<path d="M24.7887 84.1992C24.8267 96.4099 24.8393 96.8279 25.0673 97.2965C25.3713 97.8665 26.0933 98.5379 26.5747 98.6645C26.7647 98.7279 29.3107 98.7659 32.2367 98.7659H37.5567L38.152 98.4112C38.5447 98.1832 38.874 97.8539 39.102 97.4612L39.4567 96.8659L39.4947 88.6199L39.5327 80.3739L38.418 79.8925C34.1113 78.0559 29.5387 75.3199 25.9287 72.3939C25.3713 71.9505 24.89 71.5959 24.852 71.5959C24.8013 71.5959 24.776 77.2705 24.7887 84.1992Z" fill="black"/>
<path d="M70.49 81.1719C69.7047 81.4632 66.3227 82.3246 64.8533 82.6032C63.3333 82.8946 60.7367 83.1986 58.748 83.3252L57.38 83.4012V90.0766C57.38 97.5752 57.3673 97.3599 58.3427 98.1706C59.1027 98.8039 59.622 98.8546 64.942 98.8039C70.1733 98.7659 70.0593 98.7786 70.8573 97.9932C71.668 97.1699 71.63 97.5372 71.63 90.0259C71.63 86.2639 71.5793 82.6919 71.5287 82.0712C71.402 80.8426 71.402 80.8426 70.49 81.1719Z" fill="black"/>
</svg>
