<svg width="114" height="114" viewBox="0 0 114 114" fill="none" xmlns="http://www.w3.org/2000/svg">
<path d="M53.428 14.1233C50.1727 14.5666 46.9553 15.8333 44.118 17.7586C42.5093 18.8606 40.1787 21.1026 39.026 22.6733C36.8853 25.5866 35.3907 29.2726 34.96 32.7053C34.77 34.2253 34.808 37.2273 35.0233 38.6966C35.948 44.8526 39.3933 50.1853 44.65 53.6306C49.362 56.7086 55.2393 57.798 60.6987 56.62C68.1467 55.0113 74.1 49.7293 76.6207 42.5093C76.836 41.8886 77.178 40.66 77.3553 39.786C77.6593 38.3546 77.6973 37.9113 77.6973 35.5933C77.71 33.3766 77.6593 32.7813 77.4187 31.5653C76.5447 27.2586 74.746 23.8133 71.6173 20.444C70.452 19.2026 66.956 16.5933 66.7407 16.8086C66.576 16.9986 61.8767 22.5086 59.1533 25.726C57.6587 27.4866 55.594 29.9186 54.568 31.122C53.5293 32.338 52.6933 33.3386 52.6933 33.364C52.6933 33.44 59.9007 39.6466 59.9767 39.6466C60.0273 39.6466 64.41 34.58 64.9927 33.8453C65.132 33.668 65.2713 33.5666 65.322 33.6173C65.3727 33.668 65.436 34.2253 65.4613 34.8713C65.588 37.62 64.6507 40.0646 62.7633 41.99C61.028 43.7506 58.7227 44.7133 56.24 44.7133C50.0207 44.7133 45.524 38.5446 47.4747 32.7306C47.9307 31.388 48.2853 30.7293 49.1087 29.7033C50.6667 27.778 53.4027 26.3593 55.5813 26.3466H56.24V20.14V13.9333L55.4547 13.946C55.0113 13.9586 54.0993 14.0346 53.428 14.1233Z" fill="#DF2935"/>
<path d="M17.8727 57.8486C18.5693 59.014 20.3173 61.5853 21.0393 62.51C25.6247 68.362 30.9067 72.58 37.7087 75.8353C38.6333 76.266 39.4187 76.6333 39.4567 76.6333C39.4947 76.6333 39.52 75.8733 39.52 74.936V73.2386L37.8607 72.39C36.024 71.4653 34.2507 70.3886 32.4647 69.1473C28.8547 66.614 24.8393 62.5226 22.3187 58.7986L21.356 57.38H19.4687H17.5813L17.8727 57.8486Z" fill="#DF2935"/>
<path d="M25.3967 57.8486C29.412 63.2573 34.8207 67.64 40.7107 70.2493L41.9647 70.8066H46.1193H50.2867V70.3886V69.958L49.3747 69.7933C45.9167 69.1853 41.1287 67.26 37.734 65.1066C35.378 63.612 32.3 61.1546 31.2993 59.964C31.122 59.7613 30.5267 59.1026 29.9693 58.482L28.956 57.38H27.0053H25.0547L25.3967 57.8486Z" fill="#DF2935"/>
<path d="M33.706 57.836C34.352 58.52 36.784 60.5467 37.9367 61.37C39.2793 62.32 41.6607 63.726 42.9653 64.334C44.954 65.2587 47.842 66.2213 49.9447 66.6773L50.2993 66.766L50.2613 65.094L50.2233 63.422L49.0707 63.1307C45.6507 62.244 42.0027 60.4707 39.064 58.254L37.9113 57.38H35.5807H33.2627L33.706 57.836Z" fill="#DF2935"/>
<path d="M84.2333 59.3433C84.2333 60.42 84.2713 61.3066 84.3347 61.3066C84.436 61.294 86.564 58.634 87.0833 57.8486L87.4127 57.38H85.8167H84.2333V59.3433Z" fill="#DF2935"/>
<path d="M90.44 58.5452C89.1987 60.3312 87.2607 62.6999 85.6647 64.3466L84.2207 65.8412L84.2587 67.9059L84.2967 69.9706L85.8167 68.6279C89.224 65.6259 92.264 61.9399 94.734 57.8486L95.0253 57.3799H93.138H91.2507L90.44 58.5452Z" fill="#DF2935"/>
<path d="M14.06 62.9786C14.06 68.78 14.098 69.1473 14.6553 69.9073C15.314 70.7686 15.5293 70.8066 20.216 70.8066H24.4087L22.5593 68.932C19.608 65.968 16.8847 62.3833 14.9467 58.9126C14.5033 58.14 14.136 57.5066 14.1107 57.5066C14.0853 57.5066 14.06 59.9766 14.06 62.9786Z" fill="black"/>
<path d="M97.7993 58.6466C94.7973 63.9666 90.1993 69.274 85.196 73.2133L84.3347 73.8973L84.4107 74.7206C84.4487 75.1766 84.512 76.152 84.55 76.8866C84.6007 77.6213 84.6513 78.3559 84.6893 78.5079C84.7907 79.0399 84.5373 78.698 83.5367 77.0133C82.992 76.1013 82.5233 75.3413 82.4727 75.316C82.4347 75.2906 81.6873 75.6959 80.8133 76.2153C79.078 77.2413 75.7593 78.9133 74.1633 79.5593C73.606 79.7746 73.0993 80.0026 73.036 80.0533C72.9347 80.1546 79.648 91.5546 81.168 93.86C82.726 96.2413 84.664 97.6726 87.1213 98.2426C88.2107 98.496 90.3893 98.496 91.352 98.2426C94.8987 97.2926 97.2927 94.8733 98.306 91.2C98.4327 90.7693 98.4833 87.2353 98.5087 76.2533C98.534 68.3493 98.534 60.8759 98.5213 59.66L98.4833 57.4433L97.7993 58.6466Z" fill="black"/>
<path d="M72.1367 59.242C68.4507 61.75 63.1307 63.5993 58.3047 64.0426L57.38 64.1313V65.6766V67.2346L58.2413 67.1713C63.194 66.8293 68.4633 65.1826 72.732 62.6493C74.6067 61.5473 74.5053 61.8133 73.6313 60.2933C73.2133 59.5713 72.8207 58.9633 72.7573 58.938C72.694 58.9126 72.4153 59.052 72.1367 59.242Z" fill="#DF2935"/>
<path d="M74.8093 65.1319C71.288 67.3613 67.1207 69.0333 63.08 69.8439C61.6867 70.1226 60.8 70.2366 58.0513 70.5026L57.38 70.5659V72.0859V73.5933H57.798C58.5073 73.5933 60.9393 73.3526 62.3073 73.1373C66.12 72.5546 70.8193 70.9966 74.214 69.1853C75.5187 68.4886 77.482 67.2979 77.5833 67.1333C77.672 66.9939 76.114 64.4733 75.9367 64.4859C75.8733 64.4859 75.354 64.7773 74.8093 65.1319Z" fill="#DF2935"/>
<path d="M77.7733 70.6293C73.986 72.9473 69.958 74.594 65.4867 75.6706C63.536 76.1266 59.9893 76.6333 58.6467 76.6333C57.3293 76.6333 57.38 76.5573 57.38 78.356V79.9266L58.4947 79.8506C65.056 79.4326 70.8193 77.9 76.4307 75.088C77.71 74.442 80.37 72.8966 80.7247 72.58C80.8133 72.504 79.4073 69.996 79.192 69.8693C79.1413 69.844 78.508 70.186 77.7733 70.6293Z" fill="#DF2935"/>
<path d="M24.7887 83.9166C24.8267 96.1273 24.8393 96.5453 25.0673 97.0139C25.3713 97.5839 26.0933 98.2553 26.5747 98.3819C26.7647 98.4453 29.3107 98.4833 32.2367 98.4833H37.5567L38.152 98.1286C38.5447 97.9006 38.874 97.5713 39.102 97.1786L39.4567 96.5833L39.4947 88.3373L39.5327 80.0913L38.418 79.6099C34.1113 77.7733 29.5387 75.0373 25.9287 72.1113C25.3713 71.6679 24.89 71.3133 24.852 71.3133C24.8013 71.3133 24.776 76.9879 24.7887 83.9166Z" fill="black"/>
<path d="M70.49 80.8893C69.7047 81.1806 66.3227 82.042 64.8533 82.3206C63.3333 82.612 60.7367 82.916 58.748 83.0426L57.38 83.1186V89.794C57.38 97.2926 57.3673 97.0773 58.3427 97.888C59.1027 98.5213 59.622 98.572 64.942 98.5213C70.1733 98.4833 70.0593 98.496 70.8573 97.7106C71.668 96.8873 71.63 97.2546 71.63 89.7433C71.63 85.9813 71.5793 82.4093 71.5287 81.7886C71.402 80.56 71.402 80.56 70.49 80.8893Z" fill="black"/>
</svg>
